<?xml version="1.0" encoding="UTF-8" standalone="no"?>
<!-- Created with Inkscape (http://www.inkscape.org/) -->

<svg
   xmlns:dc="http://purl.org/dc/elements/1.1/"
   xmlns:cc="http://creativecommons.org/ns#"
   xmlns:rdf="http://www.w3.org/1999/02/22-rdf-syntax-ns#"
   xmlns:svg="http://www.w3.org/2000/svg"
   xmlns="http://www.w3.org/2000/svg"
   xmlns:sodipodi="http://sodipodi.sourceforge.net/DTD/sodipodi-0.dtd"
   xmlns:inkscape="http://www.inkscape.org/namespaces/inkscape"
   width="65mm"
   height="65mm"
   viewBox="0 0 64.999999 64.999999"
   version="1.1"
   id="svg8"
   inkscape:version="0.92.4 (5da689c313, 2019-01-14)"
   sodipodi:docname="logo-white.c927fc35.svg">
  <defs
     id="defs2" />
  <sodipodi:namedview
     id="base"
     pagecolor="#ffffff"
     bordercolor="#666666"
     borderopacity="1.0"
     inkscape:pageopacity="0.0"
     inkscape:pageshadow="2"
     inkscape:zoom="0.61255873"
     inkscape:cx="0.43711553"
     inkscape:cy="53.579309"
     inkscape:document-units="mm"
     inkscape:current-layer="layer1"
     showgrid="false"
     fit-margin-top="0"
     fit-margin-left="0"
     fit-margin-right="0"
     fit-margin-bottom="0"
     showguides="true"
     inkscape:guide-bbox="true"
     inkscape:window-width="1920"
     inkscape:window-height="1001"
     inkscape:window-x="-9"
     inkscape:window-y="-9"
     inkscape:window-maximized="1">
    <sodipodi:guide
       position="-124.41359,0.00043621952"
       orientation="0,1"
       id="guide909"
       inkscape:locked="false" />
  </sodipodi:namedview>
  <metadata
     id="metadata5">
    <rdf:RDF>
      <cc:Work
         rdf:about="">
        <dc:format>image/svg+xml</dc:format>
        <dc:type
           rdf:resource="http://purl.org/dc/dcmitype/StillImage" />
        <dc:title></dc:title>
      </cc:Work>
    </rdf:RDF>
  </metadata>
  <g
     inkscape:label="Layer 1"
     inkscape:groupmode="layer"
     id="layer1"
     transform="translate(-164.96417,-114.66615)">
    <path
       sodipodi:nodetypes="cccccccccccczcczcccccccczccccccczccccccccczcccczc"
       inkscape:connector-curvature="0"
       id="path840"
       d="m 196.85899,115.54348 v 6.36066 l -0.0274,0.0274 0.0274,0.0274 v 24.67749 l -8.11257,4.67721 0.005,0.005 h -0.0872 l 0.005,0.60443 0.0895,8.61778 0.61148,0.59852 0.59734,-0.61032 c 0,0 -0.55562,-5.00027 1.27736,-5.87078 1.83299,-0.8705 5.49884,2.792 5.49884,2.792 l 0.11557,0.0895 c 0,0 0.25129,9.89825 -0.98386,10.31958 -1.23519,0.4217 -12.43064,-10.24287 -12.43064,-10.24287 l -0.88157,-0.0274 0.0485,0.93513 c 2.71405,4.0132 15.58175,12.20502 13.61279,15.69129 -0.8861,0.17135 -13.23398,-12.21835 -13.23398,-12.21835 h -0.85584 l -9.5e-4,0.85706 15.9346,15.93462 c 0,0 -1.03162,-27.51941 0.44455,-28.4557 1.47588,-0.9363 6.57973,6.38948 6.57973,6.38948 l 0.85236,0.0498 0.0498,-0.85232 -7.7442,-8.68859 7.93546,-4.57569 -8.10309,-6.13633 -0.0136,-0.0136 c 0,0 -0.42399,-11.67712 0.60302,-12.12205 1.02712,-0.44501 13.26335,12.78075 13.26335,12.78075 l 0.85585,0.005 0.003,-0.85589 c -2.47025,-4.83355 -15.68322,-13.16824 -14.34486,-16.89721 0.91241,-0.61557 13.48783,12.91658 13.48783,12.91658 h 0.85588 l 9.6e-4,-0.85702 z m 1.20882,22.48414 c 0,0 4.54374,2.65579 4.37817,4.62287 -0.16539,1.9671 -4.37817,3.29128 -4.37817,3.29128 z m -1.20882,10.00839 v 7.98271 c 0,0 -4.49364,-2.59048 -4.35351,-4.55919 0.14026,-1.96874 4.35351,-3.42352 4.35351,-3.42352 z"
       style="color:#000000;font-style:normal;font-variant:normal;font-weight:normal;font-stretch:normal;font-size:medium;line-height:normal;font-family:sans-serif;font-variant-ligatures:normal;font-variant-position:normal;font-variant-caps:normal;font-variant-numeric:normal;font-variant-alternates:normal;font-feature-settings:normal;text-indent:0;text-align:start;text-decoration:none;text-decoration-line:none;text-decoration-style:solid;text-decoration-color:#000000;letter-spacing:normal;word-spacing:normal;text-transform:none;writing-mode:lr-tb;direction:ltr;text-orientation:mixed;dominant-baseline:auto;baseline-shift:baseline;text-anchor:start;white-space:normal;shape-padding:0;clip-rule:nonzero;display:inline;overflow:visible;visibility:visible;opacity:1;isolation:auto;mix-blend-mode:normal;color-interpolation:sRGB;color-interpolation-filters:linearRGB;solid-color:#000000;solid-opacity:1;vector-effect:none;fill:#ffffff;fill-opacity:1;fill-rule:nonzero;stroke:none;stroke-width:1.21075249;stroke-linecap:square;stroke-linejoin:miter;stroke-miterlimit:4;stroke-dasharray:none;stroke-dashoffset:0;stroke-opacity:1;color-rendering:auto;image-rendering:auto;shape-rendering:auto;text-rendering:auto;enable-background:accumulate" />
  </g>
</svg>
