<?xml version="1.0" encoding="UTF-8" standalone="no"?>
<svg
   xmlns:dc="http://purl.org/dc/elements/1.1/"
   xmlns:cc="http://creativecommons.org/ns#"
   xmlns:rdf="http://www.w3.org/1999/02/22-rdf-syntax-ns#"
   xmlns:svg="http://www.w3.org/2000/svg"
   xmlns="http://www.w3.org/2000/svg"
   xmlns:sodipodi="http://sodipodi.sourceforge.net/DTD/sodipodi-0.dtd"
   xmlns:inkscape="http://www.inkscape.org/namespaces/inkscape"
   viewBox="0 0 288 288"
   version="1.1"
   id="svg15"
   sodipodi:docname="logo-white.svg"
   inkscape:version="0.92.4 (5da689c313, 2019-01-14)">
  <metadata
     id="metadata21">
    <rdf:RDF>
      <cc:Work
         rdf:about="">
        <dc:format>image/svg+xml</dc:format>
        <dc:type
           rdf:resource="http://purl.org/dc/dcmitype/StillImage" />
      </cc:Work>
    </rdf:RDF>
  </metadata>
  <defs
     id="defs19" />
  <sodipodi:namedview
     pagecolor="#ffffff"
     bordercolor="#666666"
     borderopacity="1"
     objecttolerance="10"
     gridtolerance="10"
     guidetolerance="10"
     inkscape:pageopacity="0"
     inkscape:pageshadow="2"
     inkscape:window-width="1920"
     inkscape:window-height="1001"
     id="namedview17"
     showgrid="false"
     inkscape:zoom="0.81944444"
     inkscape:cx="144"
     inkscape:cy="144"
     inkscape:window-x="-9"
     inkscape:window-y="-9"
     inkscape:window-maximized="1"
     inkscape:current-layer="svg15" />
  <linearGradient
     id="a"
     gradientUnits="userSpaceOnUse"
     x1="76.81"
     x2="211.16"
     y1="211.17"
     y2="76.81">
    <stop
       offset=".21"
       stop-color="#fff"
       id="stop2" />
    <stop
       offset=".42"
       stop-color="#fff"
       stop-opacity="0"
       id="stop4" />
    <stop
       offset=".59"
       stop-color="#fff"
       stop-opacity="0"
       id="stop6" />
    <stop
       offset=".81"
       stop-color="#fff"
       id="stop8" />
  </linearGradient>
  <path
     sodipodi:nodetypes="cccccccccccczcczcccccccczccccccczccccccccczcccczc"
     inkscape:connector-curvature="0"
     id="path840"
     d="M 141.29275,2.5151132 V 30.973717 l -0.12259,0.122592 0.12259,0.122592 V 141.62996 l -36.29693,20.92657 0.0224,0.0224 h -0.39016 l 0.0224,2.70432 0.40044,38.55727 2.73586,2.67787 2.67259,-2.73067 c 0,0 -2.48593,-22.372 5.71512,-26.26679 8.20108,-3.89476 24.60268,12.49185 24.60268,12.49185 l 0.51708,0.40044 c 0,0 1.1243,44.28638 -4.40195,46.17143 -5.52644,1.8868 -55.616661,-45.82818 -55.616661,-45.82818 l -3.944287,-0.12259 0.217,4.18388 c 12.143083,17.9557 69.715218,54.6072 60.905778,70.20532 -3.96455,0.76665 -59.210925,-54.66684 -59.210925,-54.66684 h -3.829163 l -0.0047,3.83462 71.293938,71.29403 c 0,0 -4.61565,-123.12621 1.98899,-127.31533 6.60331,-4.18915 29.43875,28.58755 29.43875,28.58755 l 3.8136,0.22282 0.22281,-3.81342 -34.64878,-38.87412 35.50451,-20.47237 -36.25451,-27.45487 -0.0609,-0.06085 c 0,0 -1.89701,-52.24534 2.69801,-54.236027 4.5955,-1.991046 59.34234,57.183104 59.34234,57.183104 l 3.8292,0.0224 0.0134,-3.829438 c -11.05181,-21.62612 -70.16874,-58.916848 -64.1807,-75.600852 4.08227,-2.754159 60.34669,57.790831 60.34669,57.790831 h 3.82935 l 0.005,-3.834444 z M 146.7012,103.11273 c 0,0 20.32942,11.88243 19.58863,20.68346 -0.73998,8.80112 -19.58863,14.72572 -19.58863,14.72572 z m -5.40845,44.77913 v 35.71591 c 0,0 -20.10527,-11.59018 -19.4783,-20.39855 0.62755,-8.80845 19.4783,-15.31736 19.4783,-15.31736 z"
     style="color:#000000;font-style:normal;font-variant:normal;font-weight:normal;font-stretch:normal;font-size:medium;line-height:normal;font-family:sans-serif;font-variant-ligatures:normal;font-variant-position:normal;font-variant-caps:normal;font-variant-numeric:normal;font-variant-alternates:normal;font-feature-settings:normal;text-indent:0;text-align:start;text-decoration:none;text-decoration-line:none;text-decoration-style:solid;text-decoration-color:#000000;letter-spacing:normal;word-spacing:normal;text-transform:none;writing-mode:lr-tb;direction:ltr;text-orientation:mixed;dominant-baseline:auto;baseline-shift:baseline;text-anchor:start;white-space:normal;shape-padding:0;clip-rule:nonzero;display:inline;overflow:visible;visibility:visible;opacity:1;isolation:auto;mix-blend-mode:normal;color-interpolation:sRGB;color-interpolation-filters:linearRGB;solid-color:#000000;solid-opacity:1;vector-effect:none;fill:#ffffff;fill-opacity:1;fill-rule:nonzero;stroke:none;stroke-width:5.417099;stroke-linecap:square;stroke-linejoin:miter;stroke-miterlimit:4;stroke-dasharray:none;stroke-dashoffset:0;stroke-opacity:1;color-rendering:auto;image-rendering:auto;shape-rendering:auto;text-rendering:auto;enable-background:accumulate" />
</svg>
